<svg width="185" height="184" viewBox="0 0 185 184" fill="none" xmlns="http://www.w3.org/2000/svg">
<path d="M97.8863 165.786C89.4848 169.433 82.6372 172.124 77.3435 173.86C72.2195 175.662 67.9472 176.673 64.5266 176.893C60.8849 176.927 57.8661 176.128 55.4701 174.496C53.0741 172.864 51.0542 170.155 49.4104 166.368L47.484 161.931C47.0887 160.696 46.3773 158.895 45.3499 156.529C44.9545 155.294 44.2432 153.493 43.2158 151.127C42.8204 149.892 42.3402 148.624 41.7751 147.322C39.8231 142.826 36.7767 136.132 32.636 127.242L27.8353 116.669C23.5964 108.525 18.8828 98.4765 13.6945 86.525L11.0747 80.4902L8.68599 74.9878C6.88807 70.8462 5.75565 67.7517 5.28873 65.7043C5.26854 65.0099 5.15571 64.4261 4.95023 63.9527C4.86309 63.428 4.76815 63.0474 4.66541 62.8107C3.85909 60.6294 4.05309 58.6466 5.24739 56.8625C6.03993 56.0965 7.26452 55.354 8.92115 54.6348C9.98613 54.1725 11.0846 53.6253 12.2165 52.9933C13.4668 52.3099 14.8019 51.66 16.2219 51.0436C18.1152 50.2217 21.0221 48.8191 24.9426 46.8359C25.9562 46.2552 27.1473 45.5975 28.5159 44.8627C30.0028 44.0766 31.693 43.2726 33.5863 42.4507C37.2701 40.5702 39.8812 39.2961 41.4195 38.6283C51.1226 34.416 62.8933 30.4312 76.7316 26.6738C86.3054 23.7834 93.8933 21.8254 99.4952 20.7998C109.058 19.1798 116.833 19.1096 122.819 20.5891C130.775 23.0419 136.422 28.1141 139.761 35.8056C144.076 45.7454 143.256 55.0316 137.3 63.6643C136.862 64.2762 136.458 64.8032 136.087 65.2453C135.665 65.5691 135.269 65.9521 134.899 66.3942C133.025 67.9105 131.525 69.4759 130.398 71.0904C130.213 71.3114 130.019 71.6765 129.819 72.1856C129.566 72.5764 129.425 73.0598 129.393 73.6359C129.393 73.6359 129.419 73.695 129.47 73.8134C129.589 73.762 129.674 73.7955 129.725 73.9138C129.725 73.9138 129.895 73.9808 130.234 74.1147C139.837 73.8835 148.236 75.0892 155.43 77.7319C161.066 80.348 164.886 83.9635 166.889 88.5784C169.715 95.0866 168.602 103.375 163.55 113.443C158.411 122.987 150.797 131.847 140.705 140.025C133.213 146.09 125.531 151.394 117.659 155.937C111.695 159.369 105.104 162.652 97.8863 165.786ZM83.0241 73.7256C83.6158 73.4687 84.1895 73.0087 84.7454 72.3455C87.3597 69.9449 89.6937 67.3847 91.7475 64.6649C93.096 63.2358 94.3852 61.8323 95.6153 60.4545C96.9123 58.907 97.8053 57.8865 98.2943 57.393L99.5835 55.9896L100.849 55.0181C101.323 54.8127 101.431 54.4141 101.174 53.8224C100.301 51.8108 97.5209 51.4003 92.8345 52.591C89.9743 53.1295 86.5918 54.2463 82.6869 55.9415C79.137 57.4826 77.4794 59.8194 77.7143 62.952C77.7391 64.6288 78.2138 66.5322 79.1384 68.6621C80.0631 70.7921 80.6281 72.0937 80.8336 72.5671L81.2189 73.4545C81.4757 74.0462 82.0775 74.1365 83.0241 73.7256ZM102.63 126.178C102.749 126.126 102.782 126.042 102.731 125.923C109.267 118.304 116.774 109.842 125.251 100.537C125.518 99.8582 125.712 99.4931 125.83 99.4417L126.486 98.524C120.849 99.1432 115.501 100.269 110.444 101.902C104.188 104.337 99.0486 106.427 95.0253 108.174C93.7237 108.739 93.4324 109.85 94.1516 111.506L100.316 125.706C100.676 126.534 101.329 126.743 102.275 126.332L102.63 126.178Z" fill="#FF392D"/>
</svg>
